<svg xmlns="http://www.w3.org/2000/svg" width="1600" height="900" viewBox="0 0 1600 900">
<defs><pattern id="dots" width="20" height="20" patternUnits="userSpaceOnUse"><circle cx="2" cy="2" r="1.2" fill="#111" opacity=".12"/></pattern><style>.s{font-family:Inter,Arial,sans-serif}.m{font-family:"JetBrains Mono",Menlo,monospace}.id{font-family:"JetBrains Mono",Menlo,monospace;font-weight:800;font-size:21px}.nm{font-family:Inter,Arial,sans-serif;font-weight:800;font-size:21px}.term{font-family:"JetBrains Mono",Menlo,monospace;font-weight:500;font-size:22px;fill:#e8e6dc}.line{stroke:#111;stroke-width:5;fill:none}.final{font-family:Inter,Arial,sans-serif;font-weight:900;font-size:29px;fill:#a8f0a8;letter-spacing:2px}</style></defs>
<rect width="1600" height="900" fill="#f7f5ec"/><rect x="34" y="34" width="1532" height="832" fill="url(#dots)" stroke="#111" stroke-width="3"/>
<rect x="76" y="70" width="360" height="58" fill="#ff7dc1" stroke="#111" stroke-width="3"/><text x="101" y="109" class="s" font-size="23" font-weight="900" letter-spacing="2">YOU DESCRIBE · AGENT ORGANIZES</text>
<text x="76" y="205" class="s" font-size="62" font-weight="900">One sentence becomes</text><rect x="76" y="228" width="580" height="86" fill="#a8f0a8" stroke="#111" stroke-width="3"/><text x="102" y="291" class="s" font-size="59" font-weight="900">a traceable experiment.</text>
<rect x="76" y="358" width="650" height="478" fill="#1c1c1e" stroke="#111" stroke-width="3"/><rect x="76" y="358" width="650" height="62" fill="#a8f0a8" stroke="#111" stroke-width="3"/><circle cx="105" cy="389" r="9" fill="#ff5f57" stroke="#111" stroke-width="2"/><circle cx="132" cy="389" r="9" fill="#febc2e" stroke="#111" stroke-width="2"/><circle cx="159" cy="389" r="9" fill="#28c840" stroke="#111" stroke-width="2"/><text x="190" y="398" class="m" font-size="22" font-weight="800">agent-eln · experiment</text>
<text x="112" y="466" class="term" fill="#f7f5ec">&gt; “Treat SMP-2026-0024 with RGT-0018</text><text x="137" y="500" class="term" fill="#f7f5ec">using SOP-0007; collect RNA for sequencing.”</text><text x="120" y="558" class="term"><tspan fill="#a8f0a8">◇</tspan> Found <tspan fill="#ff7dc1">SMP-2026-0024</tspan> cultured cells</text><text x="120" y="600" class="term"><tspan fill="#a8f0a8">◇</tspan> Found <tspan fill="#ff7dc1">RGT-0018</tspan> treatment reagent</text><text x="120" y="642" class="term"><tspan fill="#a8f0a8">◇</tspan> Loaded <tspan fill="#ff7dc1">SOP-0007</tspan> treatment protocol</text><text x="120" y="684" class="term"><tspan fill="#a8f0a8">◇</tspan> Created <tspan fill="#ff7dc1">EXP-2026-07-14-01</tspan> </text><text x="120" y="726" class="term"><tspan fill="#a8f0a8">◇</tspan> Registered <tspan fill="#ff7dc1">SMP-2026-0031</tspan> extracted RNA</text><g><rect x="920" y="448" width="300" height="105" fill="#111"/><rect x="910" y="438" width="300" height="105" rx="3" fill="#ff7dc1" stroke="#111" stroke-width="3"/><text x="930" y="477" class="id">EXP-2026-07-14-01</text><text x="930" y="512" class="nm">treatment experiment</text></g><g><rect x="785" y="310" width="225" height="92" fill="#111"/><rect x="775" y="300" width="225" height="92" rx="3" fill="#a8f0a8" stroke="#111" stroke-width="3"/><text x="795" y="339" class="id">SMP-2026-0024</text><text x="795" y="374" class="nm">cultured cells</text></g><g><rect x="1045" y="310" width="205" height="92" fill="#111"/><rect x="1035" y="300" width="205" height="92" rx="3" fill="#a8f0a8" stroke="#111" stroke-width="3"/><text x="1055" y="339" class="id">RGT-0018</text><text x="1055" y="374" class="nm">reagent</text></g><g><rect x="1280" y="310" width="205" height="92" fill="#111"/><rect x="1270" y="300" width="205" height="92" rx="3" fill="#96f19b" stroke="#111" stroke-width="3"/><text x="1290" y="339" class="id">SOP-0007</text><text x="1290" y="374" class="nm">protocol</text></g><g><rect x="860" y="645" width="250" height="92" fill="#111"/><rect x="850" y="635" width="250" height="92" rx="3" fill="#a8f0a8" stroke="#111" stroke-width="3"/><text x="870" y="674" class="id">SMP-2026-0031</text><text x="870" y="709" class="nm">extracted RNA</text></g><g><rect x="1180" y="645" width="250" height="92" fill="#111"/><rect x="1170" y="635" width="250" height="92" rx="3" fill="#a8e0f0" stroke="#111" stroke-width="3"/><text x="1190" y="674" class="id">DAT-2026-0012</text><text x="1190" y="709" class="nm">sequencing data</text></g><path class="line" d="M888 392L980 438M1138 392L1085 438M1372 392L1180 438"/><path class="line" d="M1005 543L975 635"/><path class="line" d="M1120 543L1295 635"/><rect x="842" y="764" width="612" height="72" fill="#111"/><text x="1148" y="811" class="final" text-anchor="middle">EVERY RESULT — TRACEABLE.</text></svg>