<svg xmlns="http://www.w3.org/2000/svg" width="1600" height="900" viewBox="0 0 1600 900" role="img" aria-labelledby="title desc">
  <title id="title">Four connected parts of Agent ELN</title><desc id="desc">Continuous paths connect the ELN, LIMS, Methods, and Wiki cards to one central provenance hub.</desc>
  <defs><pattern id="dots" width="20" height="20" patternUnits="userSpaceOnUse"><circle cx="2" cy="2" r="1.2" fill="#111" opacity=".12"/></pattern><style>.s{font-family:Inter,Arial,sans-serif}.m{font-family:"JetBrains Mono",Menlo,monospace}.card{stroke:#111;stroke-width:3}.tag{font-family:Inter,Arial,sans-serif;font-weight:900;font-size:24px;letter-spacing:3px}.ttl{font-family:Inter,Arial,sans-serif;font-weight:900;font-size:46px}.body{font-family:Inter,Arial,sans-serif;font-weight:600;font-size:20px;fill:#403d35}.chip{font-family:"JetBrains Mono",Menlo,monospace;font-weight:800;font-size:20px}</style></defs>
  <rect width="1600" height="900" fill="#f7f5ec"/><rect x="34" y="34" width="1532" height="832" fill="url(#dots)" stroke="#111" stroke-width="3"/>
  <rect x="76" y="69" width="280" height="58" fill="#a8f0a8" class="card"/><text x="102" y="108" class="tag">ONE SYSTEM</text>
  <text x="76" y="202" class="s" font-size="64" font-weight="900">Four parts of research.</text><text x="76" y="272" class="s" font-size="64" font-weight="900">One connected memory.</text>
  <path d="M596 455C650 455 662 520 712 536" stroke="#111" stroke-width="5" fill="none"/>
  <path d="M1004 455C950 455 938 520 888 536" stroke="#111" stroke-width="5" fill="none"/>
  <path d="M596 727C660 727 672 620 736 606" stroke="#111" stroke-width="5" fill="none"/>
  <path d="M1004 727C940 727 928 620 864 606" stroke="#111" stroke-width="5" fill="none"/>
  <circle cx="800" cy="545" r="90" fill="#111"/><text x="800" y="533" fill="#f7f5ec" class="s" font-size="20" font-weight="900" letter-spacing="3" text-anchor="middle">ONE</text><text x="800" y="568" fill="#a8f0a8" class="s" font-size="20" font-weight="900" letter-spacing="2" text-anchor="middle">PROVENANCE</text>
  <g><rect x="86" y="360" width="510" height="190" fill="#ff7dc1" class="card"/><rect x="98" y="372" width="510" height="190" fill="#111"/><rect x="86" y="360" width="510" height="190" fill="#f7f5ec" class="card"/><rect x="110" y="384" width="118" height="44" fill="#ff7dc1" class="card"/><text x="128" y="415" class="tag">ELN</text><text x="110" y="482" class="ttl">What happened</text><text x="110" y="522" class="body">Experiments · ideas · meetings · projects</text></g>
  <g><rect x="1004" y="360" width="510" height="190" fill="#a8f0a8" class="card"/><rect x="1016" y="372" width="510" height="190" fill="#111"/><rect x="1004" y="360" width="510" height="190" fill="#f7f5ec" class="card"/><rect x="1028" y="384" width="134" height="44" fill="#a8f0a8" class="card"/><text x="1046" y="415" class="tag">LIMS</text><text x="1028" y="482" class="ttl">What you used</text><text x="1028" y="522" class="body">Samples · plasmids · mice · reagents</text></g>
  <g><rect x="86" y="645" width="510" height="165" fill="#96f19b" class="card"/><rect x="98" y="657" width="510" height="165" fill="#111"/><rect x="86" y="645" width="510" height="165" fill="#f7f5ec" class="card"/><rect x="110" y="669" width="190" height="44" fill="#96f19b" class="card"/><text x="128" y="700" class="tag">METHODS</text><text x="110" y="760" class="ttl">How you did it</text><text x="110" y="792" class="body">Protocols · pipelines · scripts</text></g>
  <g><rect x="1004" y="645" width="510" height="165" fill="#a8e0f0" class="card"/><rect x="1016" y="657" width="510" height="165" fill="#111"/><rect x="1004" y="645" width="510" height="165" fill="#f7f5ec" class="card"/><rect x="1028" y="669" width="128" height="44" fill="#a8e0f0" class="card"/><text x="1046" y="700" class="tag">WIKI</text><text x="1028" y="760" class="ttl">What informed it</text><text x="1028" y="792" class="body">Papers · concepts · external knowledge</text></g>
  <text x="800" y="842" class="s" font-size="22" font-weight="800" text-anchor="middle">Shared IDs · shared links · shared validation · readable Markdown</text>
</svg>
